<svg xmlns="http://www.w3.org/2000/svg" width="155" height="151.5" viewBox="0 0 155 151.5" fill="#838e99">
  <g id="pen-tool-vector-curves-svgrepo-com" transform="translate(-2 -3)">
    <path id="Path_2143" data-name="Path 2143" d="M4,75.818a70.818,70.818,0,1,1,141.636,0" transform="translate(4.902 4.902)" fill="none" stroke="#838e99" stroke-linecap="round" stroke-linejoin="round" stroke-miterlimit="10" stroke-width="5"/>
    <rect id="Rectangle_9" data-name="Rectangle 9" width="12" height="12" transform="translate(3 75)" fill="#838e99" stroke="#838e99" stroke-linecap="round" stroke-linejoin="round" stroke-miterlimit="10" stroke-width="2"/>
    <rect id="Rectangle_10" data-name="Rectangle 10" width="11" height="12" transform="translate(145 75)" fill="#838e99" stroke="#838e99" stroke-linecap="round" stroke-linejoin="round" stroke-miterlimit="10" stroke-width="2"/>
    <rect id="Rectangle_11" data-name="Rectangle 11" width="12" height="12" transform="translate(74 4)" fill="#838e99" stroke="#838e99" stroke-linecap="round" stroke-linejoin="round" stroke-miterlimit="10" stroke-width="2"/>
    <circle id="Ellipse_65" data-name="Ellipse 65" cx="6" cy="6" r="6" transform="translate(3 4)" fill="#838e99" stroke="#838e99" stroke-linecap="round" stroke-linejoin="round" stroke-miterlimit="10" stroke-width="2"/>
    <path id="Path_2145" data-name="Path 2145" d="M5.5,0A5.766,5.766,0,0,1,11,6a6.383,6.383,0,0,1-2.061,4.682A5.021,5.021,0,0,1,5.5,12,5.766,5.766,0,0,1,0,6,5.766,5.766,0,0,1,5.5,0Z" transform="translate(145 4)" fill="#838e99" stroke="#838e99" stroke-linecap="round" stroke-width="2"/>
    <line id="Line_1" data-name="Line 1" x2="142" transform="translate(9 10)" fill="none" stroke="#838e99" stroke-linecap="round" stroke-linejoin="round" stroke-miterlimit="10" stroke-width="5"/>
    <path id="Path_2144" data-name="Path 2144" d="M45.409,10,10,64.294a89,89,0,0,1,20.065,40.13H60.753c3.541-15.934,10.623-30.1,20.065-40.13Z" transform="translate(34.311 29.409)" fill="none" stroke="#838e99" stroke-linecap="round" stroke-linejoin="round" stroke-miterlimit="10" stroke-width="5"/>
    <line id="Line_2" data-name="Line 2" y1="39.54" transform="translate(79.72 41.18)" fill="none" stroke="#838e99" stroke-linecap="round" stroke-linejoin="round" stroke-miterlimit="10" stroke-width="5"/>
    <ellipse id="Ellipse_67" data-name="Ellipse 67" cx="12" cy="11.5" rx="12" ry="11.5" transform="translate(68 81)" fill="none" stroke="#838e99" stroke-linecap="round" stroke-linejoin="round" stroke-miterlimit="10" stroke-width="5"/>
    <rect id="Rectangle_12" data-name="Rectangle 12" width="35" height="18" transform="translate(62 134)" fill="none" stroke="#838e99" stroke-linecap="round" stroke-linejoin="round" stroke-miterlimit="10" stroke-width="5"/>
  </g>
</svg>
