<svg id="baseline-local_see-24px" xmlns="http://www.w3.org/2000/svg" width="191.5" height="199.177" viewBox="0 0 191.5 199.177" fill="#838e99">
  <circle id="Ellipse_63" data-name="Ellipse 63" cx="26.557" cy="26.557" r="26.557" transform="translate(69.193 73.031)" fill="none" stroke="#838e99" stroke-width="5"/>
  <path id="Path_1904" data-name="Path 1904" d="M57.406,2,42.922,18.6H17.83C9.124,18.6,2,26.067,2,35.2v99.588c0,9.129,7.124,16.6,15.83,16.6H144.473c8.707,0,15.83-7.469,15.83-16.6V35.2c0-9.129-7.124-16.6-15.83-16.6H119.382L104.9,2ZM81.152,126.485c-21.846,0-39.576-18.59-39.576-41.5s17.73-41.5,39.576-41.5,39.576,18.59,39.576,41.5S103,126.485,81.152,126.485Z" transform="translate(14.598 14.598)" fill="none" stroke="#838e99" stroke-width="5"/>
  <path id="Path_1905" data-name="Path 1905" d="M0,0H191.5V199.177H0Z" fill="none"/>
</svg>
