<svg xmlns="http://www.w3.org/2000/svg" width="158.485" height="184.066" viewBox="0 0 158.485 184.066" fill="#838e99">
  <path id="document-svgrepo-com" d="M268.694,127.952H217.533V76.79H140.79V230.275h127.9Zm-5.3-12.79L230.323,82.086v33.076ZM134.4,64h95.928l51.162,51.162V236.67a6.4,6.4,0,0,1-6.4,6.4H134.4a6.4,6.4,0,0,1-6.4-6.4V70.4A6.4,6.4,0,0,1,134.4,64Zm31.976,89.533h76.742v12.79H166.371Zm0-38.371h31.976v12.79H166.371Zm0,76.742h76.742v12.79H166.371Z" transform="translate(-125.5 -61.5)" fill="none" stroke="#838e99" stroke-width="5"/>
</svg>
