<svg xmlns="http://www.w3.org/2000/svg" width="185.056" height="141.96" viewBox="0 0 185.056 141.96" fill="#838e99">
  <path id="marketing-svgrepo-com" d="M159.564,4.144a14,14,0,0,0-13.1-1.12L77.375,30.235a13.661,13.661,0,0,1-5.151,1.008H27.994a14,14,0,0,0-14,14v1.12H0V79.951H14v1.456a14,14,0,0,0,14,13.661l16.8,35.608a14.109,14.109,0,0,0,12.653,8.062H64.5a14,14,0,0,0,13.885-14V96.412l68.081,27.21a14.221,14.221,0,0,0,5.263,1.008,14.445,14.445,0,0,0,7.838-2.463,14,14,0,0,0,6.159-11.2V15.678a14,14,0,0,0-6.159-11.533ZM64.386,45.239V81.407H27.994V45.239Zm0,79.5H57.331L43.558,95.068H64.386Zm18.14-41.655a25.642,25.642,0,0,0-4.143-1.68V44.455a25.305,25.305,0,0,0,4.143-1.232l69.2-27.546v94.955Zm83.533-33.928V77.152a14,14,0,0,0,0-27.994Z" transform="translate(2.5 0.721)" fill="none" stroke="#838e99" stroke-width="5"/>
</svg>
