<svg xmlns="http://www.w3.org/2000/svg" width="193.184" height="205.569" viewBox="0 0 193.184 205.569" fill="#838e99">
  <path id="music-tone-alt-svgrepo-com" d="M188.983,138.14c0-.107.031-.207.031-.32V7.234a6.309,6.309,0,0,0-.113-2.1A6.262,6.262,0,0,0,182.75-.008,6.2,6.2,0,0,0,179.6.869L62.556,31.34a6.07,6.07,0,0,0-4.31,4.047,6.143,6.143,0,0,0-.783,2.976V150.45a39.441,39.441,0,0,0-21.9-6.39C16.467,144.06.981,156.709.981,172.308s15.486,28.254,34.581,28.254,34.575-12.648,34.575-28.254c0-.8-.069-1.579-.144-2.362V42.354l106.5-27.721V119.127a39.426,39.426,0,0,0-21.9-6.39c-19.095,0-34.581,12.655-34.581,28.241s15.486,28.247,34.581,28.247,34.575-12.648,34.575-28.254a23.48,23.48,0,0,0-.175-2.838ZM35.693,187.969c-13.03,0-22.114-8.257-22.114-15.662s9.084-15.649,22.114-15.649c11.6,0,20.047,6.54,21.77,13.193v.075a6.117,6.117,0,0,0,.3,1.8c.013.194.044.382.044.583,0,7.4-9.084,15.662-22.108,15.662Zm118.828-31.317c-12.911,0-21.92-8.257-21.92-15.662s9-15.649,21.914-15.649,21.914,8.251,21.914,15.649-9,15.662-21.914,15.662Z" transform="translate(1.519 2.508)" fill="none" stroke="#838e99" stroke-width="5"/>
</svg>
