<svg xmlns="http://www.w3.org/2000/svg" width="208" height="150" viewBox="0 0 208 150" fill="#838e99">
  <g id="Subtraction_1" data-name="Subtraction 1" fill="none">
    <path d="M198,150H10A10.011,10.011,0,0,1,0,140V10A10.011,10.011,0,0,1,10,0H198a10.011,10.011,0,0,1,10,10v8H25a5.006,5.006,0,0,0-5,5V33a5.006,5.006,0,0,0,5,5H208V140A10.011,10.011,0,0,1,198,150ZM169,85a13,13,0,1,0,13,13A13.015,13.015,0,0,0,169,85Z" stroke="none"/>
    <path d="M 198.0000305175781 145.0003051757812 C 200.7569580078125 145.0003051757812 202.9998931884766 142.7573699951172 202.9998931884766 140.0003967285156 L 202.9998931884766 42.99980926513672 L 25.00018119812012 42.99980926513672 C 19.4859619140625 42.99980926513672 14.99980545043945 38.51405715942383 14.99980545043945 33.00030899047852 L 14.99980545043945 23.00040245056152 C 14.99980545043945 17.48615264892578 19.4859619140625 12.99999618530273 25.00018119812012 12.99999618530273 L 202.9998931884766 12.99999618530273 L 202.9998931884766 9.999902725219727 C 202.9998931884766 7.242933750152588 200.7569580078125 4.999996185302734 198.0000305175781 4.999996185302734 L 9.999898910522461 4.999996185302734 C 7.242961883544922 4.999996185302734 5.000024318695068 7.242933750152588 5.000024318695068 9.999902725219727 L 5.000024318695068 140.0003967285156 C 5.000024318695068 142.7573699951172 7.242961883544922 145.0003051757812 9.999898910522461 145.0003051757812 L 198.0000305175781 145.0003051757812 M 169.0002136230469 79.99958801269531 C 178.9252166748047 79.99958801269531 186.9998016357422 88.07459259033203 186.9998016357422 98.00009155273438 C 186.9998016357422 107.9251251220703 178.9252166748047 115.9997177124023 169.0002136230469 115.9997177124023 C 159.07470703125 115.9997177124023 150.9997100830078 107.9251251220703 150.9997100830078 98.00009155273438 C 150.9997100830078 88.07459259033203 159.07470703125 79.99958801269531 169.0002136230469 79.99958801269531 M 198.0000305175781 150.0003051757812 L 9.999898910522461 150.0003051757812 C 4.485930442810059 150.0003051757812 2.43530266743619e-05 145.5143737792969 2.43530266743619e-05 140.0003967285156 L 2.43530266743619e-05 9.999902725219727 C 2.43530266743619e-05 4.485933780670166 4.485930442810059 -3.662109293145477e-06 9.999898910522461 -3.662109293145477e-06 L 198.0000305175781 -3.662109293145477e-06 C 203.5139923095703 -3.662109293145477e-06 207.9998931884766 4.485933780670166 207.9998931884766 9.999902725219727 L 207.9998931884766 17.99999618530273 L 25.00018119812012 17.99999618530273 C 22.24296188354492 17.99999618530273 19.99980545043945 20.2431526184082 19.99980545043945 23.00040245056152 L 19.99980545043945 33.00030899047852 C 19.99980545043945 35.75705718994141 22.24296188354492 37.99980926513672 25.00018119812012 37.99980926513672 L 207.9998931884766 37.99980926513672 L 207.9998931884766 140.0003967285156 C 207.9998931884766 145.5143737792969 203.5139923095703 150.0003051757812 198.0000305175781 150.0003051757812 Z M 169.0002136230469 84.99958801269531 C 161.8317413330078 84.99958801269531 155.9997100830078 90.83158874511719 155.9997100830078 98.00009155273438 C 155.9997100830078 105.1680908203125 161.8317413330078 110.9997177124023 169.0002136230469 110.9997177124023 C 176.168212890625 110.9997177124023 181.9998016357422 105.1680908203125 181.9998016357422 98.00009155273438 C 181.9998016357422 90.83158874511719 176.168212890625 84.99958801269531 169.0002136230469 84.99958801269531 Z" stroke="none" fill="#838e99"/>
  </g>
</svg>
