<svg xmlns="http://www.w3.org/2000/svg" width="192.5" height="191.5" viewBox="0 0 192.5 191.5" fill="#838e99">
  <g id="baseline-business_center-24px" transform="translate(0.5)">
    <path id="Path_2141" data-name="Path 2141" d="M0,0H191.5V191.5H0ZM79.792,39.9h31.917V55.854H79.792Zm0,0h31.917V55.854H79.792Z" fill="none"/>
    <path id="Path_2142" data-name="Path 2142" d="M77,136.972V126.667H11.469l-.094,41.222c0,11.439,8.344,20.611,18.75,20.611h131.25c10.406,0,18.75-9.172,18.75-20.611V126.667H114.5v10.306Zm93.75-92.75H133.156V23.611L114.406,3h-37.5L58.156,23.611V44.222H20.75C10.438,44.222,2,53.5,2,64.833V95.75c0,11.439,8.344,20.611,18.75,20.611H77V95.75h37.5v20.611h56.25c10.313,0,18.75-9.275,18.75-20.611V64.833C189.5,53.5,181.063,44.222,170.75,44.222Zm-56.25,0H77V23.611h37.5Z" fill="none" stroke="#838e99" stroke-width="5"/>
  </g>
</svg>
